<?xml version="1.0" encoding="UTF-8" standalone="no"?>
<!-- Created with Inkscape (http://www.inkscape.org/) -->

<svg
   version="1.1"
   id="svg2"
   width="660.52698"
   height="770"
   viewBox="0 0 660.52698 770"
   sodipodi:docname="!iasa_logo_vectorized_Jarrett.svg"
   inkscape:version="1.2 (dc2aedaf03, 2022-05-15)"
   inkscape:export-filename="100!IASA_logo_revectorized_upscale_Jarrett.png"
   inkscape:export-xdpi="12.467532"
   inkscape:export-ydpi="12.467532"
   xmlns:inkscape="http://www.inkscape.org/namespaces/inkscape"
   xmlns:sodipodi="http://sodipodi.sourceforge.net/DTD/sodipodi-0.dtd"
   xmlns="http://www.w3.org/2000/svg"
   xmlns:svg="http://www.w3.org/2000/svg">
  <defs
     id="defs6">
    <inkscape:path-effect
       effect="fill_between_many"
       method="originald"
       linkedpaths="#path1321,0,1|"
       id="path-effect1349" />
    <inkscape:path-effect
       effect="fill_between_many"
       method="originald"
       linkedpaths="#path1410,0,1"
       id="path-effect1419" />
    <inkscape:path-effect
       effect="fill_between_many"
       method="originald"
       linkedpaths="#path2546,0,1"
       id="path-effect2548" />
  </defs>
  <sodipodi:namedview
     id="namedview4"
     pagecolor="#ffffff"
     bordercolor="#000000"
     borderopacity="0.25"
     inkscape:showpageshadow="2"
     inkscape:pageopacity="0.0"
     inkscape:pagecheckerboard="0"
     inkscape:deskcolor="#d1d1d1"
     showgrid="true"
     inkscape:zoom="0.70710678"
     inkscape:cx="256.67976"
     inkscape:cy="317.49094"
     inkscape:window-width="1920"
     inkscape:window-height="991"
     inkscape:window-x="-9"
     inkscape:window-y="-9"
     inkscape:window-maximized="1"
     inkscape:current-layer="g8" />
  <g
     inkscape:groupmode="layer"
     inkscape:label="Image"
     id="g8"
     style="display:inline"
     transform="translate(1.0162116,-1.3611642)">
    <g
       id="g188"
       style="display:inline"
       inkscape:label="fills"
       transform="matrix(0.96410501,0,0,0.96410501,-5.854366e-4,0.08475391)">
      <path
         id="path1330"
         style="display:inline;fill:#059174;fill-opacity:1"
         inkscape:label="fill-outer-shield"
         d="M 340.84194 21.21163 L 20.015324 132.15893 L 125.76228 633.25312 L 341.66038 777.6957 L 557.55645 634.49901 L 663.41888 132.60056 L 340.84194 21.21163 z " />
      <path
         id="path1327"
         style="display:inline;fill:#ffffff"
         inkscape:label="shield-spacer"
         d="M 341.50034 92.815036 L 76.439092 183.22637 L 161.69263 587.77498 L 342.14861 708.58002 L 520.66991 589.61849 L 606.61628 183.28309 L 341.50034 92.815036 z " />
      <path
         id="path1324"
         style="display:inline;fill:#059174;fill-opacity:1;stroke-width:1.07539"
         inkscape:label="fill-inner-shield"
         d="M 341.85891 113.00053 C 259.23123 141.46892 176.60247 169.93761 93.974785 198.406 C 120.48296 324.49288 146.99104 450.58042 173.49924 576.66728 C 229.83245 613.83861 286.16585 651.0105 342.49908 688.18181 C 398.06939 651.16133 453.64143 614.13953 509.21174 577.11905 C 536.04552 450.56394 562.87889 324.00895 589.71265 197.45386 C 507.09483 169.30287 424.47673 141.15152 341.85891 113.00053 z " />
      <path
         id="path1321"
         style="display:inline;fill:#ffffff"
         class="UnoptimicedTransforms"
         inkscape:label="fill-eagle"
         d="m 350.14461,203.65294 -93.32247,38.0048 42.49003,178.41191 -131.01125,47.29532 21.52053,101.7682 152.98556,100.38658 151.82069,-100.55067 26.79582,-131.7061 -77.92403,-28.80951 -80.57992,-119.45381 h 62.635 l 14.66913,14.0006 0.7759,-62.72414 z" />
    </g>
    <g
       id="g1001"
       style="display:inline"
       inkscape:label="outlines"
       transform="matrix(0.96410501,0,0,0.96410501,-5.854366e-4,0.08475391)">
      <path
         style="display:inline;fill:#000000"
         d="m 352.5,241.5 24.1845,-0.14883 -0.1845,12.42475 z"
         id="path1342"
         inkscape:label="outline-eagle-eye"
         sodipodi:nodetypes="cccc" />
      <path
         style="display:inline;fill:#000000"
         d="M 173.5,576.66671 93.975285,198.40534 341.85881,113 589.71276,197.45315 509.21129,577.11919 342.5,688.18088 Z M 494.62778,568.96911 521.42284,437.26278 443.5,408.45329 362.91936,289 h 62.63428 L 440.22318,303 441,240.27651 350.14371,203.65258 256.82297,241.6586 299.31184,420.06982 168.301,467.36566 189.82046,569.1341 342.80658,669.52073 Z M 283.74908,411.58425 240.34148,231.5 349.44327,190.21031 454,231.21716 V 336.47794 L 420.47856,303 389,303.49884 451.51763,396.76441 522.10991,422.2316 566.85417,210.56014 341.71749,133.17678 116.32063,210.42288 167,452.29554 Z"
         id="path1339"
         inkscape:label="outline-inner-shield"
         sodipodi:nodetypes="ccccccccccccccccccccccccccccccccccc"
         class="UnoptimicedTransforms" />
      <path
         style="display:inline;fill:#000000"
         d="M 149.90765,598.2425 58.087643,172.89557 341.6581,76.410214 624.98887,172.94825 533.93247,596.02048 341.76054,725.06659 Z M 520.66955,589.6191 606.61548,183.28215 341.5,92.815625 76.439665,183.227 161.69222,587.77438 342.14893,708.57939 Z"
         id="path1336"
         inkscape:label="outline-outer-shield-inner-boarder"
         sodipodi:nodetypes="cccccccccccccc" />
      <path
         style="display:inline;fill:#000000"
         d="M 110.52144,644.85478 -0.0163097,120.04861 340.5,2.3611623 683.02876,120.10244 572.11293,645.13238 341.29985,798.95489 Z M 557.55667,634.5 663.41926,132.60092 340.84206,21.210924 20.016189,132.15866 125.76319,633.2541 341.66097,777.6956 Z"
         id="path1333"
         inkscape:label="outline-outer-shield-outer-border"
         sodipodi:nodetypes="cccccccccccccc" />
    </g>
  </g>
</svg>
